<svg version="1.2" xmlns="http://www.w3.org/2000/svg" viewBox="0 0 64 64" width="64" height="64">
	<title>New Project</title>
	<style>
		.s0 { fill: #ffffff } 
	</style>
	<path id="Layer 4" fill-rule="evenodd" class="s0" d="m50.2 31.4c0.3 0.2 1.2 3.9 1.4 3.6 0.9-1.5 1-1.8 1.4-3.5 1.1-4.8 0-10.1 0-10.1q0-3.9-1.7-7.5-1.6-3.6-4.5-6.2-2.8-2.6-6.6-4.2-3.9-1.5-8.2-1.5-4.3 0-8.2 1.5-0.5 0.3-1 0.5-0.5 0.2-1.1 0.5-1.2 0.7-2.3 1.4-0.5 0.4-1 0.8-0.7 0.5-1.2 1-2.9 2.6-4.5 6.2-1.7 3.6-1.7 7.5v10.1c0 1.3 0.2 3 1.7 3.8 0.1-2.4 1-3.8 1-3.8m0 0q0-1.3 1.4-2.5 1.5-1.2 4-2.1 2.4-0.9 5.8-1.4 3.4-0.5 7.1-0.5 3.7 0 7.1 0.5 3.4 0.5 5.8 1.4 2.5 0.9 4 2.1 1.4 1.2 1.4 2.5"/>
	<path id="Layer 5 copy" class="s0" d="m23.9 39.7c0.5 1.6 1.4 3.8 1.2 4.6q-0.3 1.3-0.9 2.6-0.9 1.7-2 2.9-1.2 1.2-2.3 1.9-1.2 0.7-2.7 1.1-1.4 0.4-2.7 0.5-1.3 0.1-2.9 0h-0.1q2.1-1.6 2.9-3.1 0.5-0.9 0.5-1.9 0.1-0.9-0.1-1.8-0.2-1-0.6-2-0.3-0.9-0.6-2-0.3-1.1-0.4-2.2-0.2-1.1 0.1-2.4 0.2-1.3 0.9-2.6 0.9-1.6 2-2.8 1.1-1.2 2.3-1.9 1.2-0.7 2.6-1.1c1-0.3 2.1-0.9 2.1 0 0 0.6-0.2 1.8-0.2 3-0.1 1.1-0.1 2.6 0 3.3 0.2 1.4 0.7 3.2 0.9 3.9z"/>
	<path id="Layer 5 copy 3" class="s0" d="m44.2 51.4q1.2 0.7 2.7 1.1 1.4 0.4 2.7 0.5 1.3 0.1 2.9 0h0.1q-2.1-1.6-2.9-3.2-0.5-0.8-0.5-1.8-0.1-0.9 0.1-1.8 0.3-1 0.6-2 0.3-1 0.6-2 0.3-1.1 0.4-2.2 0.2-1.1-0.1-2.4-0.2-1.3-0.9-2.6-0.9-1.6-2-2.8-1.1-1.2-2.3-1.9-1.2-0.7-2.6-1.1c-1-0.3-2.5-1-2.5-0.2 0 0.7 0.4 1.8 1.1 3.1 0.6 0.9 1.2 2.9 1.2 5.4 0 2 0.1 7.2 0.2 8.8 0.1 1.7 0.5 4.6 1.2 5.1z"/>
	<path id="Layer 5 copy 2" class="s0" d="m38.9 28.2c0.7 1 1.1 3.2 1.6 4.2q0.9 1.6 1.4 3.9 0.5 2.2 0.5 4.9 0 3.3-0.6 6.3-0.6 2.9-1.5 5.1-0.9 2.2-2.3 4.2-1.4 1.9-2.9 3.4-1.4 1.4-3.2 2.8h-0.1q1.4-4.4 1.4-7.6 0-1.8-0.5-3.3-0.5-1.6-1.3-2.8-0.8-1.2-1.8-2.5-1-1.2-2-2.6-1-1.4-1.8-3-0.8-1.6-1.3-3.8-0.5-2.3-0.5-5c0-2.2-0.3-1.8 0.1-3.8 0.9-0.7 10.4-0.7 14.8-0.4z"/>
</svg>