<svg version="1.2" xmlns="http://www.w3.org/2000/svg" viewBox="0 0 64 64" width="64" height="64">
	<title>New Project</title>
	<style>
		.s0 { fill: #ffffff } 
	</style>
	<path id="Shape 1" fill-rule="evenodd" class="s0" d="m32 0.6l31.4 31.4-31.4 31.4-31.4-31.4zm-25.4 31.4l25.4 25.4 25.4-25.4-25.4-25.4zm29.3 9.9v6q0 0.4-0.3 0.7-0.3 0.3-0.7 0.3h-6.6q-0.4 0-0.7-0.3-0.4-0.3-0.4-0.7v-6q0-0.4 0.4-0.7 0.3-0.3 0.7-0.3h6.6q0.4 0 0.7 0.3 0.3 0.3 0.3 0.7zm8.6-14.9q0 1.4-0.4 2.5-0.4 1.2-0.9 1.9-0.6 0.8-1.5 1.5-1 0.8-1.6 1.1-0.6 0.3-1.7 0.9-1.1 0.5-1.8 1.6-0.8 1-0.8 1.6 0 0.5-0.3 0.9-0.3 0.3-0.8 0.3h-6.5q-0.4 0-0.7-0.4-0.3-0.5-0.3-0.9v-1.2q0-2 1.8-3.8 1.8-1.9 3.9-2.7 1.6-0.7 2.3-1.4 0.7-0.7 0.7-1.9 0-1.1-1.3-1.8-1.3-0.8-2.9-0.8-1.8 0-3 0.7-0.9 0.6-2.9 2.8-0.3 0.4-0.8 0.4-0.3 0-0.7-0.2l-4.4-3.1q-0.4-0.2-0.5-0.6 0-0.4 0.2-0.7 4.3-6.6 12.6-6.6 2.2 0 4.4 0.8 2.2 0.8 3.9 2 1.8 1.3 2.9 3.2 1.1 1.9 1.1 3.9z"/>
</svg>