<svg version="1.2" xmlns="http://www.w3.org/2000/svg" viewBox="0 0 64 64" width="64" height="64">
	<title>Map_icon-svg</title>
	<style>
		.s0 { fill: #ffffff } 
	</style>
	<path id="Layer 5" fill-rule="evenodd" class="s0" d="m41.6 3.4q-0.5-0.5-1.3-1v16.4h16.3q-0.5-0.7-0.9-1.2zm-4.7 19q-1-1-1-2.4v-19h-27.6q-1.4 0-2.4 1-0.9 1-0.9 2.4v55.7q0 1.4 0.9 2.4 1 1 2.4 1h46.4q1.3 0 2.3-1 1-1 1-2.4v-36.8h-18.8q-1.4 0-2.3-0.9zm7.5 27.4q-0.3 0.3-0.8 0.3h-24.3q-0.5 0-0.8-0.3-0.3-0.3-0.3-0.8v-2.2q0-0.5 0.3-0.8 0.3-0.4 0.8-0.4h24.3q0.5 0 0.8 0.4 0.3 0.3 0.3 0.8v2.2q0 0.5-0.3 0.8zm0-8.9q-0.3 0.3-0.8 0.3h-24.3q-0.5 0-0.8-0.3-0.3-0.3-0.3-0.8v-2.3q0-0.5 0.3-0.8 0.3-0.3 0.8-0.3h24.3q0.5 0 0.8 0.3 0.3 0.3 0.3 0.8v2.3q0 0.5-0.3 0.8zm0-9q-0.3 0.4-0.8 0.4h-24.3q-0.5 0-0.8-0.4-0.3-0.3-0.3-0.8v-2.2q0-0.5 0.3-0.8 0.3-0.3 0.8-0.3h24.3q0.5 0 0.8 0.3 0.3 0.3 0.3 0.8v2.2q0 0.5-0.3 0.8z"/>
</svg>