<svg version="1.2" xmlns="http://www.w3.org/2000/svg" viewBox="0 0 64 64" width="64" height="64">
	<title>New Project</title>
	<style>
		.s0 { fill: #ffffff } 
	</style>
	<path id="Layer 5" fill-rule="evenodd" class="s0" d="m43.9 8.2q-0.9-0.9-2.4-1.6-1.6-0.6-2.9-0.6h-28.5q-1.3 0-2.2 0.9-0.9 0.9-0.9 2.2v51.6q0 1.2 0.9 2.1 0.9 0.9 2.2 0.9h42.8q1.3 0 2.2-0.9 0.9-0.9 0.9-2.1v-37.2q0-1.3-0.6-2.8-0.7-1.6-1.6-2.5zm-2.9 2.9l10 10.1q0.4 0.4 0.7 1.4h-12v-12.2q0.9 0.4 1.3 0.7zm-29.9 48.6v-49.5h24.5v13.4q0 1.3 0.9 2.2 0.9 0.9 2.2 0.9h13.3v33zm8.1-25.8q0 0.4 0.3 0.7 0.3 0.3 0.8 0.3h22.4q0.5 0 0.7-0.3 0.3-0.3 0.3-0.7v-2.1q0-0.4-0.3-0.7-0.2-0.3-0.7-0.3h-22.4q-0.5 0-0.8 0.3-0.3 0.3-0.3 0.7zm1.1 5.2q-0.5 0-0.8 0.3-0.3 0.3-0.3 0.7v2.1q0 0.4 0.3 0.7 0.3 0.3 0.8 0.3h22.4q0.5 0 0.7-0.3 0.3-0.3 0.3-0.7v-2.1q0-0.4-0.3-0.7-0.2-0.3-0.7-0.3zm0 8.2q-0.4 0-0.7 0.3-0.3 0.3-0.3 0.8v2q0 0.5 0.3 0.8 0.3 0.3 0.7 0.3h22.5q0.4 0 0.7-0.3 0.3-0.3 0.3-0.8v-2q0-0.5-0.3-0.8-0.3-0.3-0.7-0.3z"/>
</svg>