<svg version="1.2" xmlns="http://www.w3.org/2000/svg" viewBox="0 0 64 64" width="64" height="64">
	<title>New Project</title>
	<style>
		.s0 { fill: #ffffff } 
	</style>
	<path id="Layer 1" fill-rule="evenodd" class="s0" d="m59.1 53.3q-0.4 0.3-0.8 0.3h-52.6q-0.5 0-0.8-0.3-0.3-0.4-0.3-0.9v-28.5q1.1 1.3 2.4 2.4 9.6 7.7 15.2 12.6 1.9 1.6 3 2.5 1.2 0.9 3.1 1.8 1.9 0.9 3.7 0.9 1.7 0 3.7-0.9 1.9-0.9 3.1-1.8 1.1-0.9 2.9-2.5 5.7-4.9 15.3-12.6 1.3-1.1 2.4-2.4v28.5q0 0.5-0.3 0.9zm-1.3-35.1q-1.7 2.7-3.6 4.3-6.9 5.7-14.3 11.8-0.3 0.2-1.3 1.1-1 0.9-1.6 1.4-0.6 0.5-1.6 1.2-1 0.7-1.8 1-0.9 0.3-1.6 0.3-0.8 0-1.6-0.3-0.8-0.3-1.8-1-1-0.7-1.6-1.2-0.6-0.5-1.6-1.4-1-0.9-1.3-1.1-7.4-6.1-14.3-11.8-5.2-4.3-5.2-10.5 0-0.5 0.3-0.9 0.3-0.3 0.8-0.3h52.6q0.3 0 0.5 0.1 0.2 0 0.3 0.2 0.1 0.2 0.2 0.4 0.1 0.1 0.1 0.4 0 0.3 0 0.5 0 0.2 0 0.5 0 0.4 0 0.4 0 2.2-1.6 4.9zm4.5-10.5q-1.7-1.7-4-1.7h-52.6q-2.3 0-4 1.7-1.7 1.8-1.7 4.3v40.4q0 2.5 1.7 4.2 1.7 1.8 4 1.8h52.6q2.3 0 4-1.8 1.7-1.7 1.7-4.2v-40.4q0-2.5-1.7-4.3z"/>
</svg>