<svg version="1.2" xmlns="http://www.w3.org/2000/svg" viewBox="0 0 64 64" width="64" height="64">
	<title>New Project</title>
	<style>
		.s0 { fill: #ffffff } 
	</style>
	<path id="Shape 2" fill-rule="evenodd" class="s0" d="m41.4 15.8q-3.3-2-7.1-2.4v3.7h-4.6v-3.7q-3.8 0.4-7.1 2.4-2.1 1.2-3.8 2.8l2.9 2.3-2.8 3.6-2.9-2.3q-0.2 0.2-0.3 0.4-2.5 4.4-2.5 9.5 0 0.9 0.1 1.9l3.5-0.8 1.1 4.4-3.6 0.9q0.5 1.5 1.4 3 2.3 4 6.1 6.4l1.6-3.3 4.1 2-1.6 3.3q2.9 1 6.1 1 3.2 0 6-1l-1.6-3.3 4.2-2 1.6 3.3q3.8-2.4 6.1-6.4 0.9-1.4 1.4-3l-3.6-0.8 1-4.5 3.6 0.8q0.1-0.9 0.1-1.9 0-5.1-2.5-9.5-0.1-0.2-0.2-0.4l-2.9 2.3-2.9-3.6 2.9-2.3q-1.7-1.6-3.8-2.8zm13.6 2.9q3.6 6.1 3.6 13.4 0 1.9-0.3 3.7l4.7 1-1 4.5-4.7-1.1q-0.8 2.7-2.3 5.2-3.5 6-9.5 9.6l2.1 4.3-4.1 2-2.1-4.3q-4.4 1.7-9.4 1.7-5 0-9.5-1.8l-2 4.4-4.2-2 2.1-4.4q-5.9-3.5-9.4-9.5-1.5-2.5-2.3-5.2l-4.7 1.1-1-4.5 4.7-1.1q-0.3-1.8-0.3-3.6 0-7.3 3.6-13.4 0.4-0.7 0.9-1.4l-3.8-3 2.9-3.6 3.7 3q2.6-2.7 6-4.6 5.1-3 11-3.5v-4.8h4.6v4.8q5.9 0.5 11 3.5 3.4 1.9 6 4.7l3.8-3 2.8 3.6-3.7 3q0.4 0.6 0.8 1.3z"/>
</svg>