<svg version="1.2" xmlns="http://www.w3.org/2000/svg" viewBox="0 0 64 64" width="64" height="64">
	<title>New Project</title>
	<style>
		.s0 { fill: #ffffff } 
	</style>
	<path id="Layer 2" fill-rule="evenodd" class="s0" d="m52 31.6q1.7 0 2.8 1.2 1.2 1.1 1.2 2.8v23.7q0 1.7-1.2 2.8-1.1 1.2-2.8 1.2h-40q-1.7 0-2.8-1.2-1.2-1.1-1.2-2.8v-23.7q0-1.7 1.2-2.8 1.1-1.2 2.8-1.2h1.3v-13.1q0-7.7 5.5-13.1 5.5-5.4 13.2-5.4 7.7 0 13.2 5.4 5.5 5.4 5.5 13.1 0 1-0.8 1.8-0.8 0.8-1.9 0.8h-2.7q-1.1 0-1.8-0.8-0.8-0.8-0.8-1.8 0-4.4-3.2-7.5-3.1-3.1-7.5-3.1-4.4 0-7.5 3.1-3.2 3.1-3.2 7.5v13.1zm-16.5 9.3q-0.5-1.2-1.5-2.1-0.9-0.8-2-0.8-1 0-2 0.8-0.9 0.9-1.4 2.1-0.6 1.3-0.6 2.7 0 1.5 0.7 2.5 0.8 1.1 1.9 1.4l-0.5 8.7q0 0.3 0.2 0.5 0.2 0.2 0.5 0.2h2.4q0.4 0 0.6-0.2 0.2-0.2 0.2-0.5l-0.6-8.7q1.2-0.3 1.9-1.4 0.7-1 0.7-2.5 0-1.4-0.5-2.7z"/>
</svg>