<svg version="1.2" xmlns="http://www.w3.org/2000/svg" viewBox="0 0 64 64" width="64" height="64">
	<title>New Project</title>
	<style>
		.s0 { fill: #ffffff } 
	</style>
	<path id="Layer 4" fill-rule="evenodd" class="s0" d="m44.1 9.3q8.1 0 15.1 4.2l4.8 42.5q-4.1 0-8-1.9-6.3-3.1-12.3-3.1-7.1 0-11.7 5-4.6-5-11.7-5-6 0-12.3 3.1-4 1.9-7.8 1.9h-0.2l4.8-42.5q7-4.2 15.1-4.2 7.3 0 12.1 3.5 4.8-3.5 12.1-3.5zm-12.1 40.8q5.4-3.6 11.7-3.6 4 0 7.2 0.9 3.3 1 8.2 3.1l-3.9-34.1q-5.4-2.6-11.5-2.6-7 0-11.7 4.8-4.7-4.8-11.7-4.8-6.1 0-11.5 2.6l-3.9 34.1q3.3-1.4 5.2-2.1 1.4-0.6 3.3-1l-1.8-1.3 3.5-5.3 2.5 1.7-3.1 4.6q0.1 0 0.3-0.1 2.7-0.5 5.5-0.5 6.3 0 11.7 3.6zm-10.2-25.4q0.2 0.2 0.2 0.5 0 0.3-0.2 0.6l-1 1q-0.3 0.2-0.6 0.2-0.3 0-0.5-0.2l-2.2-2.2-2.2 2.2q-0.2 0.2-0.5 0.2-0.3 0-0.6-0.2l-1-1q-0.2-0.3-0.2-0.6 0-0.3 0.2-0.5l2.2-2.2-2.2-2.2q-0.2-0.2-0.2-0.5 0-0.3 0.2-0.6l1-1q0.3-0.2 0.6-0.2 0.3 0 0.5 0.2l2.2 2.2 2.2-2.2q0.2-0.2 0.5-0.2 0.3 0 0.6 0.2l1 1q0.2 0.3 0.2 0.6 0 0.3-0.2 0.5l-2.2 2.2zm2.2-3.3l8 0.7-0.3 3-7.9-0.7zm11.2-0.4l6.1 0.8-0.2 3-6.2-0.9zm10.8 5.1l1.4 6.3-2.9 0.6-1.4-6.2zm-3.6 10l-5.9 2.7-1.2-2.8 5.8-2.6zm-10.4 2.2l-6-2.3 1-2.8 6 2.3zm-7.4-0.7l-5.7 3.1-1.4-2.7 5.6-3z"/>
</svg>