<svg version="1.2" xmlns="http://www.w3.org/2000/svg" viewBox="0 0 64 64" width="64" height="64">
	<title>Map_icon-svg</title>
	<style>
		.s0 { fill: #ffffff } 
	</style>
	<path id="Layer 4" fill-rule="evenodd" class="s0" d="m44.1 6.3q8.1 0 15.1 4.7l4.8 48q-4.1 0-8-2.1-6.3-3.5-12.3-3.5-7.1 0-11.7 5.6-4.6-5.6-11.7-5.6-6 0-12.3 3.5-4 2.1-7.8 2.1h-0.2l4.8-48q7-4.7 15.1-4.7 7.3 0 12.1 3.9 4.8-3.9 12.1-3.9zm-24.1 17.1l2.6-2.6q0.3-0.3 0.3-0.6 0-0.4-0.3-0.7l-1.2-1.3q-0.3-0.2-0.7-0.2-0.4 0-0.6 0.2l-2.7 2.7-2.6-2.7q-0.3-0.2-0.6-0.2-0.4 0-0.7 0.2l-1.3 1.3q-0.2 0.3-0.2 0.7 0 0.3 0.2 0.6l2.7 2.6-2.7 2.7q-0.2 0.2-0.2 0.6 0 0.4 0.2 0.7l1.3 1.2q0.3 0.3 0.7 0.3 0.3 0 0.6-0.3l2.6-2.6 2.7 2.6q0.2 0.3 0.6 0.3 0.4 0 0.7-0.3l1.2-1.2q0.3-0.3 0.3-0.7 0-0.4-0.3-0.6zm15.1-7.9l7.5 1.1 0.2-3.7-7.4-0.9zm16 8.3l1.7 7.5 3.5-0.7-1.7-7.6zm-1 10.1l-7 3.2 1.5 3.3 7.1-3.2zm-8.5 4.8l-7.3-2.8-1.2 3.4 7.2 2.7zm-12.6-1.7l-6.8 3.6 1.7 3.2 6.9-3.7zm2-25l-6.8 3.6 1.7 3.3 6.9-3.8zm-11.5 30.5l-3.6 6.8 3.2 1.7 3.6-6.9zm33.9-23.2l-5.5-5.4-2.6 2.5 5.6 5.5z"/>
</svg>