<svg version="1.2" xmlns="http://www.w3.org/2000/svg" viewBox="0 0 256 256" width="256" height="256">
	<title>Hamburger_icon-svg</title>
	<style>
		.s0 { fill: #ffffff } 
	</style>
	<path id="Layer 7" fill-rule="evenodd" class="s0" d="m112.7 120.3l30.6 15.9-30.6 15.9zm-15.4-9.8v67.3l61.4-31.8v-67.3zm63.3 76.2q-14.9 9.1-32.7 9.1-17.7 0-32.7-9.1-14.9-9-23.7-24.5-8.7-15.6-8.7-33.9 0-18.4 8.7-33.9 8.8-15.5 23.7-24.6 15-9 32.7-9 17.8 0 32.7 9 15 9.1 23.8 24.6 8.7 15.5 8.7 33.9 0 18.3-8.7 33.9-8.8 15.5-23.8 24.5zm13.5-140.9q-21.1-12.8-46.2-12.8-25 0-46.1 12.8-21.2 12.8-33.5 34.7-12.4 21.9-12.4 47.8 0 25.9 12.4 47.8 12.3 21.9 33.5 34.7 21.1 12.8 46.1 12.8 25.1 0 46.2-12.8 21.2-12.8 33.5-34.7 12.3-21.9 12.3-47.8 0-25.9-12.3-47.8-12.3-21.9-33.5-34.7z"/>
</svg>