<svg version="1.2" xmlns="http://www.w3.org/2000/svg" viewBox="0 0 64 64" width="64" height="64">
	<title>New Project</title>
	<style>
		.s0 { fill: #ffffff } 
	</style>
	<path id="Layer 1" class="s0" d="m62.4 2.9q-1.7-0.7-2.9 0.6l-5.5 5.3q-4.4-4.2-10.1-6.5-5.8-2.3-11.9-2.3-6.5 0-12.4 2.5-5.9 2.6-10.2 6.9-4.3 4.3-6.9 10.2-2.5 5.9-2.5 12.4 0 6.5 2.5 12.4 2.6 5.9 6.9 10.2 4.3 4.3 10.2 6.9 5.9 2.5 12.4 2.5 7.2 0 13.6-3 6.5-3 11-8.5 0.4-0.5 0.3-1 0-0.5-0.4-0.8l-5.7-5.8q-0.4-0.4-1-0.4-0.7 0.1-1 0.5-3 4-7.4 6.2-4.4 2.1-9.4 2.1-4.3 0-8.3-1.7-3.9-1.6-6.8-4.5-2.9-2.9-4.5-6.8-1.7-4-1.7-8.3 0-4.3 1.7-8.3 1.6-3.9 4.5-6.8 2.9-2.9 6.8-4.5 4-1.7 8.3-1.7 8.4 0 14.5 5.7l-5.7 5.7q-1.3 1.3-0.6 2.9 0.7 1.7 2.5 1.7h18.6q1.1 0 1.9-0.8 0.8-0.8 0.8-1.9v-18.7q0-1.7-1.6-2.4z"/>
</svg>