<svg version="1.2" xmlns="http://www.w3.org/2000/svg" viewBox="0 0 64 64" width="64" height="64">
	<title>New Project</title>
	<style>
		.s0 { fill: #ffffff } 
	</style>
	<path id="Layer 6" fill-rule="evenodd" class="s0" d="m32 42.7q-4.4 0-7.5-3.2-3.2-3.1-3.2-7.5 0-4.4 3.2-7.5 3.1-3.2 7.5-3.2 4.4 0 7.5 3.2 3.2 3.1 3.2 7.5 0 4.4-3.2 7.5-3.1 3.2-7.5 3.2zm31.7-16.2q-0.4-0.5-0.9-0.5l-7.6-1.2q-0.7-2-1.7-4.1 0.7-1 2.2-2.9 1.5-1.9 2.1-2.8 0.4-0.5 0.4-1 0-0.5-0.3-0.9-1.5-2.1-6.9-7.1-0.5-0.4-1-0.4-0.7 0-1 0.4l-6 4.5q-1.7-0.9-3.7-1.6l-1.2-7.6q0-0.6-0.5-0.9-0.4-0.4-1-0.4h-9.2q-1.2 0-1.5 1.2-0.6 2.1-1.2 7.7-2 0.6-3.8 1.6l-5.8-4.5q-0.5-0.4-1.1-0.4-0.9 0-3.9 3-3 3-4.1 4.5-0.4 0.5-0.4 0.9 0 0.5 0.4 1 2.8 3.4 4.5 5.8-1 1.9-1.6 3.8l-7.8 1.2q-0.4 0.1-0.8 0.5-0.3 0.5-0.3 1v9.2q0 0.6 0.3 1 0.4 0.5 0.9 0.5l7.6 1.2q0.6 2 1.7 4.1-0.7 1-2.2 2.9-1.5 1.9-2.1 2.8-0.4 0.5-0.4 1 0 0.5 0.3 0.9 1.7 2.3 6.9 7 0.5 0.5 1 0.5 0.7 0 1.1-0.4l5.9-4.5q1.7 0.9 3.7 1.6l1.2 7.7q0 0.5 0.5 0.8 0.4 0.4 1 0.4h9.2q1.2 0 1.5-1.2 0.6-2.1 1.2-7.7 2-0.6 3.8-1.6l5.8 4.5q0.6 0.4 1.1 0.4 0.9 0 3.9-3 3-2.9 4.1-4.5 0.4-0.4 0.4-0.9 0-0.6-0.4-1.1-3-3.6-4.5-5.7 0.8-1.6 1.6-3.8l7.7-1.2q0.5-0.1 0.9-0.5 0.3-0.5 0.3-1v-9.2q0-0.6-0.3-1z"/>
</svg>